<svg width="15" height="16" viewBox="0 0 15 16" fill="none" xmlns="http://www.w3.org/2000/svg">
<g id="Eye">
<path id="Vector" d="M7.50027 12.2003C11.4111 12.2003 14.5059 8.35039 14.6355 8.18659L14.7828 8.00029L14.6355 7.81399C14.5059 7.65019 11.4111 3.80029 7.50027 3.80029C3.58947 3.80029 0.494673 7.65019 0.365073 7.81399L0.217773 8.00029L0.365073 8.18659C0.494673 8.35039 3.58947 12.2003 7.50027 12.2003ZM7.50027 4.40029C10.6485 4.40029 13.3413 7.23829 14.0073 8.00029C13.3422 8.76289 10.653 11.6003 7.50027 11.6003C4.35207 11.6003 1.65927 8.76229 0.993273 8.00029C1.65837 7.23769 4.34757 4.40029 7.50027 4.40029Z" fill="#374EF4"/>
<path id="Vector_2" d="M7.4998 10.6998C8.9887 10.6998 10.1998 9.4884 10.1998 7.9998C10.1998 6.5112 8.9887 5.2998 7.4998 5.2998C6.0109 5.2998 4.7998 6.5112 4.7998 7.9998C4.7998 9.4884 6.0109 10.6998 7.4998 10.6998ZM7.4998 5.8998C8.6575 5.8998 9.5998 6.8418 9.5998 7.9998C9.5998 9.1578 8.6575 10.0998 7.4998 10.0998C6.3421 10.0998 5.3998 9.1578 5.3998 7.9998C5.3998 6.8418 6.3421 5.8998 7.4998 5.8998Z" fill="#374EF4"/>
</g>
</svg>
